<svg xmlns="http://www.w3.org/2000/svg" xmlns:xlink="http://www.w3.org/1999/xlink"><symbol id="boat" viewBox="0 0 44 32"><path d="M41.439 25.72 1.648 17.212c-.306-.066-.512.563-.354 1.064C3.838 26.326 9.858 32 16.867 32h23.737c.161 0 .303-.199.35-.491l.794-4.894c.068-.415-.081-.847-.31-.895ZM43.884 11.771c-.116-.345-.306-.575-.52-.629l-11-2.783c-.396-.098-.77.434-.824 1.196-.054.76.229 1.462.63 1.563l1.245.315c.182.046.319.34.319.689v2.15c0 .414-.19.737-.406.692l-2.933-.597c-.187-.036-.328-.335-.328-.69v-6.09c0-.138.021-.271.061-.385l1.282-3.648a2.5 2.5 0 0 0 .045-1.399c-.12-.448-.356-.74-.62-.764l-15.4-1.39c-.248-.005-.487.197-.632.58 0 0-2.93 7.815-3.573 9.534-.077.206-.206.316-.338.288L.812 8.355c-.21-.041-.415.085-.57.348C.09 8.968 0 9.343 0 9.738c0 1.34.092 2.654.265 3.928.038.281.167.486.319.52l41.431 8.857c.175.037.34-.167.392-.488l1.56-9.625c.064-.39.033-.815-.083-1.159ZM21.163 4.064l-.572 7.6c-.028.369-.2.632-.396.594-1.431-.274-6.806-1.347-6.806-1.347-.28-.057-.423-.662-.26-1.096l2.519-6.691c.072-.192.191-.302.316-.29l4.853.437c.216.02.376.387.346.793Zm7.95 1.015-.451 1.28c-.04.114-.062.249-.062.386v6.486c0 .413-.19.736-.405.691l-5.82-1.183c-.206-.041-.354-.4-.324-.79l.593-7.879c.026-.355.191-.614.38-.597l5.801.525c.285.025.446.63.288 1.08Zm9.02 10.088c0 .414-.189.736-.405.692 0 0-1.523-.326-2.205-.479-.184-.04-.323-.338-.323-.69v-2.012c0-.42.195-.746.415-.69l2.2.556c.182.048.318.343.318.69v1.933Zm4.05-.698-.271 1.675c-.052.317-.215.522-.39.487l-1.595-.324c-.185-.038-.327-.337-.327-.692v-1.822c0-.42.195-.746.415-.69l1.867.471c.224.057.368.483.302.895Z"/></symbol><symbol id="check" viewBox="0 0 38 32"><path d="M28.753 3.375 26.44 0 16.073 15.135l2.314 3.376L28.753 3.375ZM35.694 0 18.38 25.25l-6.819-9.948-2.313 3.376L18.379 32 38 3.375 35.694 0ZM0 18.678 9.132 32l2.314-3.375-9.132-13.323L0 18.678Z"/></symbol><symbol id="icon-close" viewBox="0 0 20 20"><path d="M.293 18.291a1 1 0 1 0 1.414 1.414L10 11.413l8.292 8.292a1 1 0 1 0 1.414-1.414l-8.292-8.292 8.292-8.292A1 1 0 1 0 18.291.293L9.999 8.585 1.707.293A1 1 0 1 0 .293 1.707L8.585 10 .293 18.291z"/></symbol><symbol id="logo" viewBox="0 0 70 38"><path fill-rule="evenodd" clip-rule="evenodd" d="m.904 31.125 13.769-18.582 3.766 2.013L27.404 0l5.585 6.659 2.078-1.704 8.054 10.22 5.716-6.813 15.977 22.763L49.42 11.769l-2.338 8.13 2.143 6.426-13.769-18.97-.15 6.473 7.814 17.297-14.614-26.79 4.222 14.48-5.91-14.092-3.247 9.369.649-6.117L16.1 30.04l.974-9.291-3.377-3.716L.904 31.125Z"/><path fill-rule="evenodd" clip-rule="evenodd" d="M69.441 34.031C47.641 16.428 13.71 40.63 0 31.296c15.072 13.226 50.302-9.132 69.441 2.735Z"/><path fill-rule="evenodd" clip-rule="evenodd" d="M70 35.416c-17.104-10.899-42.543 4.268-55.581.756 14.128 6.856 40.43-8.336 55.581-.756Z"/></symbol><symbol id="ok" viewBox="0 0 12 20"><path d="M5.875 3.025c1.196 0 2.168.96 2.168 2.138 0 1.175-.972 2.134-2.168 2.134-1.196 0-2.168-.958-2.168-2.134 0-1.179.972-2.138 2.168-2.138Zm0 7.298c2.888 0 5.237-2.316 5.237-5.16C11.112 2.315 8.763 0 5.875 0S.642 2.315.642 5.163c0 2.844 2.345 5.16 5.233 5.16Zm2.118 4.211a9.95 9.95 0 0 0 3.04-1.243 1.5 1.5 0 0 0 .482-2.084 1.545 1.545 0 0 0-2.118-.476 6.733 6.733 0 0 1-7.048 0 1.54 1.54 0 0 0-2.114.476 1.5 1.5 0 0 0 .483 2.084 9.95 9.95 0 0 0 3.04 1.243L.828 17.418a1.498 1.498 0 0 0 0 2.137 1.547 1.547 0 0 0 2.172 0l2.874-2.833 2.878 2.833a1.543 1.543 0 0 0 2.168 0 1.498 1.498 0 0 0 0-2.137l-2.928-2.884Z" fill="#F9FBFD"/></symbol><symbol id="phone" viewBox="0 0 18 18"><path d="M18 13.42v3.536a1 1 0 0 1-.93.998c-.437.03-.794.046-1.07.046C7.163 18 0 10.837 0 2c0-.276.015-.633.046-1.07A1 1 0 0 1 1.044 0H4.58a.5.5 0 0 1 .498.45c.023.23.044.413.064.552A13.9 13.9 0 0 0 6.35 5.003c.095.2.033.439-.147.567L4.045 7.112a13.047 13.047 0 0 0 6.844 6.844l1.54-2.154a.462.462 0 0 1 .573-.149 13.9 13.9 0 0 0 4 1.205c.139.02.322.042.55.064a.5.5 0 0 1 .449.498H18Z"/></symbol><symbol id="pin" viewBox="0 0 18 22"><path d="M15.364 15.556 9 22l-6.364-6.444a9.149 9.149 0 0 1-2.463-4.665 9.219 9.219 0 0 1 .512-5.266A9.09 9.09 0 0 1 4 1.535 8.921 8.921 0 0 1 9 0c1.78 0 3.52.534 5 1.536a9.089 9.089 0 0 1 3.315 4.09 9.22 9.22 0 0 1 .512 5.264 9.149 9.149 0 0 1-2.463 4.666ZM9 11.138c.53 0 1.04-.214 1.414-.594a2.038 2.038 0 0 0 0-2.864A1.988 1.988 0 0 0 9 7.089c-.53 0-1.04.213-1.414.593C7.21 8.06 7 8.576 7 9.113c0 .537.21 1.052.586 1.431.375.38.884.594 1.414.594Z"/></symbol><symbol id="reddit" viewBox="0 0 20 20"><path d="M11.945 0c-.641 0-1.243.325-1.629.795-.386.469-.599 1.04-.754 1.643-.246.97-.322 2.045-.34 3.014-1.803.12-3.435.654-4.79 1.48-.55-.463-1.213-.72-1.848-.713-.724.007-1.41.319-1.921.96C-.313 8.4-.201 10.4.93 11.588a6.01 6.01 0 0 0-.122 1.123C.808 16.74 4.924 20 10 20c5.076 0 9.192-3.264 9.192-7.288 0-.38-.052-.756-.122-1.123 1.13-1.188 1.243-3.188.267-4.41-.51-.641-1.197-.953-1.92-.96-.636-.007-1.298.25-1.849.713-1.35-.822-2.972-1.357-4.766-1.48.025-.894.089-1.822.268-2.52.112-.439.246-.757.389-.932.143-.175.246-.247.486-.247.52 0 .587.168.9.576.158.205.34.462.632.712.292.25.724.466 1.192.466V1.753c-.131 0-.155-.003-.243-.082-.089-.079-.21-.26-.39-.493C13.678.708 12.982 0 11.947 0Zm5.058.164c-1.21 0-2.188 1.103-2.188 2.466 0 1.363.978 2.466 2.188 2.466 1.21 0 2.189-1.103 2.189-2.466 0-1.363-.98-2.466-2.189-2.466Zm0 .877c.778 0 1.41.712 1.41 1.59 0 .876-.632 1.588-1.41 1.588-.778 0-1.41-.712-1.41-1.589s.632-1.589 1.41-1.589ZM10 6.821c4.307 0 7.951 2.703 7.951 5.891 0 3.192-3.644 5.89-7.951 5.89-4.307 0-7.951-2.698-7.951-5.89 0-3.188 3.644-5.89 7.951-5.89Zm-7.392.795c.216.004.44.059.656.165-.78.668-1.4 1.435-1.823 2.301-.292-.678-.213-1.524.146-1.972a1.263 1.263 0 0 1 1.02-.494Zm14.784 0c.398-.003.76.165 1.021.494.36.448.438 1.294.146 1.972-.422-.866-1.042-1.633-1.823-2.301a1.55 1.55 0 0 1 .656-.165ZM6.888 9.808c-.779 0-1.41.713-1.41 1.59 0 .876.631 1.588 1.41 1.588.778 0 1.41-.712 1.41-1.589s-.632-1.589-1.41-1.589Zm6.225 0c-.779 0-1.41.713-1.41 1.59 0 .876.631 1.588 1.41 1.588.778 0 1.41-.712 1.41-1.589s-.632-1.589-1.41-1.589Zm-6.98 5.398C6.63 16.36 8.162 17.48 10 17.48s3.395-1.12 3.89-2.274c-.9.654-2.319 1.095-3.89 1.095-1.571 0-2.967-.441-3.866-1.095Z" fill="#F9FBFD"/></symbol><symbol id="ship" viewBox="0 0 27 32"><path d="m4.405 16.396 8.811-6.46a.6.6 0 0 1 .655 0l8.854 6.46V8.688c.049-1.057-.75-1.954-1.785-2.003l-.047-.002H6.237c-1.035.024-1.856.9-1.833 1.958l.001.047v7.708ZM15.746 0h-4.362v5.347h4.362V0Z"/><path d="M24.296 30.164 27 21.03l-3.795-2.718-.262-.134-8.941-6.37v18.801h-.48l-.83-.044V11.807L0 21.03l2.792 9.09 1.612 1.87h2.754s5.089.007 6.364 0c1.298.022 3.603 0 3.603 0h5.688l1.483-1.826Z"/></symbol><symbol id="zen" viewBox="0 0 20 20"><path d="M19.559 9.557h.004a.436.436 0 0 0 .435-.476A10.026 10.026 0 0 0 10.921 0a.437.437 0 0 0-.476.44c.076 6.408.921 9.027 9.114 9.116Zm0 .886c-8.193.09-9.038 2.707-9.114 9.115a.437.437 0 0 0 .477.44 10.025 10.025 0 0 0 9.076-9.08.437.437 0 0 0-.44-.475ZM9.049.003A10.03 10.03 0 0 0 .003 9.083a.436.436 0 0 0 .435.476h.005C8.608 9.464 9.451 6.847 9.528.443a.438.438 0 0 0-.478-.44ZM.443 10.444c-.136-.016-.243.049-.326.14a.438.438 0 0 0-.114.335 10.03 10.03 0 0 0 9.089 9.08.437.437 0 0 0 .436-.442c-.077-6.403-.92-9.02-9.085-9.114Z"/></symbol></svg>