<svg xmlns="http://www.w3.org/2000/svg" xmlns:xlink="http://www.w3.org/1999/xlink"><symbol id="icon-close" viewBox="0 0 20 20"><path d="M.293 18.291a1 1 0 1 0 1.414 1.414L10 11.413l8.292 8.292a1 1 0 1 0 1.414-1.414l-8.292-8.292 8.292-8.292A1 1 0 1 0 18.291.293L9.999 8.585 1.707.293A1 1 0 1 0 .293 1.707L8.585 10 .293 18.291z"/></symbol><symbol id="logo" viewBox="0 0 70 38"><path fill-rule="evenodd" clip-rule="evenodd" d="m.904 31.125 13.769-18.582 3.766 2.013L27.404 0l5.585 6.659 2.078-1.704 8.054 10.22 5.716-6.813 15.977 22.763L49.42 11.769l-2.338 8.13 2.143 6.426-13.769-18.97-.15 6.473 7.814 17.297-14.614-26.79 4.222 14.48-5.91-14.092-3.247 9.369.649-6.117L16.1 30.04l.974-9.291-3.377-3.716L.904 31.125Z"/><path fill-rule="evenodd" clip-rule="evenodd" d="M69.441 34.031C47.641 16.428 13.71 40.63 0 31.296c15.072 13.226 50.302-9.132 69.441 2.735Z"/><path fill-rule="evenodd" clip-rule="evenodd" d="M70 35.416c-17.104-10.899-42.543 4.268-55.581.756 14.128 6.856 40.43-8.336 55.581-.756Z"/></symbol><symbol id="ok" viewBox="0 0 12 20"><path d="M5.875 3.025c1.196 0 2.168.96 2.168 2.138 0 1.175-.972 2.134-2.168 2.134-1.196 0-2.168-.958-2.168-2.134 0-1.179.972-2.138 2.168-2.138Zm0 7.298c2.888 0 5.237-2.316 5.237-5.16C11.112 2.315 8.763 0 5.875 0S.642 2.315.642 5.163c0 2.844 2.345 5.16 5.233 5.16Zm2.118 4.211a9.95 9.95 0 0 0 3.04-1.243 1.5 1.5 0 0 0 .482-2.084 1.545 1.545 0 0 0-2.118-.476 6.733 6.733 0 0 1-7.048 0 1.54 1.54 0 0 0-2.114.476 1.5 1.5 0 0 0 .483 2.084 9.95 9.95 0 0 0 3.04 1.243L.828 17.418a1.498 1.498 0 0 0 0 2.137 1.547 1.547 0 0 0 2.172 0l2.874-2.833 2.878 2.833a1.543 1.543 0 0 0 2.168 0 1.498 1.498 0 0 0 0-2.137l-2.928-2.884Z"/></symbol><symbol id="reddit" viewBox="0 0 20 20"><path d="M11.945 0c-.641 0-1.243.325-1.629.795-.386.469-.599 1.04-.754 1.643-.246.97-.322 2.045-.34 3.014-1.803.12-3.435.654-4.79 1.48-.55-.463-1.213-.72-1.848-.713-.724.007-1.41.319-1.921.96C-.313 8.4-.201 10.4.93 11.588a6.01 6.01 0 0 0-.122 1.123C.808 16.74 4.924 20 10 20c5.076 0 9.192-3.264 9.192-7.288 0-.38-.052-.756-.122-1.123 1.13-1.188 1.243-3.188.267-4.41-.51-.641-1.197-.953-1.92-.96-.636-.007-1.298.25-1.849.713-1.35-.822-2.972-1.357-4.766-1.48.025-.894.089-1.822.268-2.52.112-.439.246-.757.389-.932.143-.175.246-.247.486-.247.52 0 .587.168.9.576.158.205.34.462.632.712.292.25.724.466 1.192.466V1.753c-.131 0-.155-.003-.243-.082-.089-.079-.21-.26-.39-.493C13.678.708 12.982 0 11.947 0Zm5.058.164c-1.21 0-2.188 1.103-2.188 2.466 0 1.363.978 2.466 2.188 2.466 1.21 0 2.189-1.103 2.189-2.466 0-1.363-.98-2.466-2.189-2.466Zm0 .877c.778 0 1.41.712 1.41 1.59 0 .876-.632 1.588-1.41 1.588-.778 0-1.41-.712-1.41-1.589s.632-1.589 1.41-1.589ZM10 6.821c4.307 0 7.951 2.703 7.951 5.891 0 3.192-3.644 5.89-7.951 5.89-4.307 0-7.951-2.698-7.951-5.89 0-3.188 3.644-5.89 7.951-5.89Zm-7.392.795c.216.004.44.059.656.165-.78.668-1.4 1.435-1.823 2.301-.292-.678-.213-1.524.146-1.972a1.263 1.263 0 0 1 1.02-.494Zm14.784 0c.398-.003.76.165 1.021.494.36.448.438 1.294.146 1.972-.422-.866-1.042-1.633-1.823-2.301a1.55 1.55 0 0 1 .656-.165ZM6.888 9.808c-.779 0-1.41.713-1.41 1.59 0 .876.631 1.588 1.41 1.588.778 0 1.41-.712 1.41-1.589s-.632-1.589-1.41-1.589Zm6.225 0c-.779 0-1.41.713-1.41 1.59 0 .876.631 1.588 1.41 1.588.778 0 1.41-.712 1.41-1.589s-.632-1.589-1.41-1.589Zm-6.98 5.398C6.63 16.36 8.162 17.48 10 17.48s3.395-1.12 3.89-2.274c-.9.654-2.319 1.095-3.89 1.095-1.571 0-2.967-.441-3.866-1.095Z"/></symbol><symbol id="zen" viewBox="0 0 20 20"><path d="M19.559 9.557h.004a.436.436 0 0 0 .435-.476A10.026 10.026 0 0 0 10.921 0a.437.437 0 0 0-.476.44c.076 6.408.921 9.027 9.114 9.116Zm0 .886c-8.193.09-9.038 2.707-9.114 9.115a.437.437 0 0 0 .477.44 10.025 10.025 0 0 0 9.076-9.08.437.437 0 0 0-.44-.475ZM9.049.003A10.03 10.03 0 0 0 .003 9.083a.436.436 0 0 0 .435.476h.005C8.608 9.464 9.451 6.847 9.528.443a.438.438 0 0 0-.478-.44ZM.443 10.444c-.136-.016-.243.049-.326.14a.438.438 0 0 0-.114.335 10.03 10.03 0 0 0 9.089 9.08.437.437 0 0 0 .436-.442c-.077-6.403-.92-9.02-9.085-9.114Z"/></symbol></svg>